<svg t="1623933352978" class="icon" viewBox="0 0 1024 1024" version="1.1"
    xmlns="http://www.w3.org/2000/svg" p-id="2343" width="400" height="400">
    <path
        d="M915.06383 1024H653.617021c-61.004255 0-108.93617-47.931915-108.93617-108.93617V653.617021c0-61.004255 47.931915-108.93617 108.93617-108.93617h261.446809c61.004255 0 108.93617 47.931915 108.93617 108.93617h-43.574468c0-37.038298-28.323404-65.361702-65.361702-65.361702H653.617021c-37.038298 0-65.361702 28.323404-65.361702 65.361702v261.446809c0 37.038298 28.323404 65.361702 65.361702 65.361702h261.446809c37.038298 0 65.361702-28.323404 65.361702-65.361702h43.574468c0 61.004255-47.931915 108.93617-108.93617 108.93617z m-544.680851 0H108.93617c-61.004255 0-108.93617-47.931915-108.93617-108.93617V653.617021c0-61.004255 47.931915-108.93617 108.93617-108.93617h261.446809c61.004255 0 108.93617 47.931915 108.93617 108.93617v261.446809c0 61.004255-47.931915 108.93617-108.93617 108.93617zM108.93617 588.255319c-37.038298 0-65.361702 28.323404-65.361702 65.361702v261.446809c0 37.038298 28.323404 65.361702 65.361702 65.361702h261.446809c37.038298 0 65.361702-28.323404 65.361702-65.361702V653.617021c0-37.038298-28.323404-65.361702-65.361702-65.361702H108.93617z m806.12766-108.93617H653.617021c-61.004255 0-108.93617-47.931915-108.93617-108.93617V108.93617c0-61.004255 47.931915-108.93617 108.93617-108.93617h261.446809c61.004255 0 108.93617 47.931915 108.93617 108.93617v261.446809c0 61.004255-47.931915 108.93617-108.93617 108.93617zM653.617021 43.574468c-37.038298 0-65.361702 28.323404-65.361702 65.361702v261.446809c0 37.038298 28.323404 65.361702 65.361702 65.361702h261.446809c37.038298 0 65.361702-28.323404 65.361702-65.361702V108.93617c0-37.038298-28.323404-65.361702-65.361702-65.361702H653.617021zM370.382979 479.319149H108.93617c-61.004255 0-108.93617-47.931915-108.93617-108.93617V108.93617c0-61.004255 47.931915-108.93617 108.93617-108.93617h261.446809c61.004255 0 108.93617 47.931915 108.93617 108.93617v261.446809c0 61.004255-47.931915 108.93617-108.93617 108.93617zM108.93617 43.574468C71.897872 43.574468 43.574468 71.897872 43.574468 108.93617v261.446809c0 37.038298 28.323404 65.361702 65.361702 65.361702h261.446809c37.038298 0 65.361702-28.323404 65.361702-65.361702V108.93617c0-37.038298-28.323404-65.361702-65.361702-65.361702H108.93617z"
        p-id="2344" fill="#8793B3"></path>
</svg>