<svg t="1623747556164" class="icon" viewBox="0 0 1024 1024" version="1.1"
    xmlns="http://www.w3.org/2000/svg" p-id="4746" width="200" height="200">
    <path
        d="M511.460053 0c282.132448 0 510.850112 228.717664 510.850112 510.840113 0 282.132448-228.717664 510.850112-510.850112 510.850113C229.337604 1021.690226 0.619939 792.972561 0.619939 510.840113 0.619939 228.717664 229.337604 0 511.460053 0z m0 69.663197c-243.646206 0-441.186915 197.540709-441.186916 441.186915 0 243.656205 197.540709 441.186915 441.186916 441.186916 243.656205 0 441.186915-197.540709 441.186915-441.186916 0-243.656205-197.53071-441.186915-441.186915-441.186915z m196.140845 287.811893l-69.663197 255.425056a34.850597 34.850597 0 0 1-24.427614 24.427615l-255.425056 69.663197a34.854596 34.854596 0 0 1-33.806699-8.969124 34.848597 34.848597 0 0 1-8.969124-33.806699l69.663197-255.425056a34.850597 34.850597 0 0 1 24.427615-24.427614l255.425056-69.663197c12.058822-3.289679 24.957563 0.129987 33.806698 8.969124a34.854596 34.854596 0 0 1 8.969124 33.806698z m-83.241871 40.476048l-177.402675 48.385274-48.395274 177.402676 177.402676-48.385275 48.395273-177.402675z m0 0"
        p-id="4747" fill="#8793B3"></path>
</svg>