<svg t="1623933533261" class="icon" viewBox="0 0 1024 1024" version="1.1"
    xmlns="http://www.w3.org/2000/svg" p-id="4492" width="400" height="400">
    <path
        d="M860.16 623.177143L672.182857 950.857143a34.377143 34.377143 0 0 1-47.542857 12.434286l-88.502857-51.2L658.285714 702.902857A35.108571 35.108571 0 0 0 648.777143 658.285714H643.657143a34.377143 34.377143 0 0 0-43.885714 7.314286v5.12L476.16 877.714286l-118.491429-73.142857 119.954286-204.8a33.645714 33.645714 0 0 0-7.314286-43.154286l-5.12-3.657143a34.377143 34.377143 0 0 0-43.154285 7.314286v5.12l-123.611429 208.457143-208.457143-120.685715a34.377143 34.377143 0 0 1-12.434285-46.811428l188.708571-326.217143z m-61.44-512a33.645714 33.645714 0 0 1 12.434286 46.811428l-85.577143 146.285715 208.457143 119.954285a35.108571 35.108571 0 0 1 12.434285 47.542858l-34.377142 59.245714a34.377143 34.377143 0 0 1-46.811429 12.434286L330.605714 237.714286a33.645714 33.645714 0 0 1-12.434285-46.811429l33.645714-59.245714a35.108571 35.108571 0 0 1 47.542857-13.165714L607.085714 239.177143l85.577143-146.285714a34.377143 34.377143 0 0 1 46.811429-12.434286z"
        fill="#8793B3" p-id="4493"></path>
</svg>